<?xml version="1.0" encoding="UTF-8" standalone="no"?>
<svg
   version="1.1"
   viewBox="0 0 180 156"
   id="svg20"
   sodipodi:docname="astronomy-1294337.svg"
   inkscape:version="1.2.2 (732a01da63, 2022-12-09, custom)"
   xmlns:inkscape="http://www.inkscape.org/namespaces/inkscape"
   xmlns:sodipodi="http://sodipodi.sourceforge.net/DTD/sodipodi-0.dtd"
   xmlns="http://www.w3.org/2000/svg"
   xmlns:svg="http://www.w3.org/2000/svg">
  <defs
     id="defs24" />
  <sodipodi:namedview
     id="namedview22"
     pagecolor="#505050"
     bordercolor="#ffffff"
     borderopacity="1"
     inkscape:showpageshadow="0"
     inkscape:pageopacity="0"
     inkscape:pagecheckerboard="1"
     inkscape:deskcolor="#505050"
     showgrid="false"
     inkscape:zoom="2.7115385"
     inkscape:cx="67.858155"
     inkscape:cy="105.47518"
     inkscape:window-width="1920"
     inkscape:window-height="1019"
     inkscape:window-x="0"
     inkscape:window-y="31"
     inkscape:window-maximized="1"
     inkscape:current-layer="svg20" />
  <path
     d="m0 80.2v-2.2l6.6-2.8-3-7.2 7.4-3.2 3 7.4 21.4-8.8 0.8-5.8 87.6-36.2 1-5.8c18.6-7.8 37.2-15.6 38.2-15.6 7 0 17 16.8 17 30 0 4.4-1.4 6.6-3 7.2l-37 15.4-4.6-3.6-26 10.8-0.2 4.4-7.4 3 2 5c3.6 1.4 5.6 3.2 7.2 6.8l35.2 75.6-3.2 1.4-37.2-65-3.2 53h-3.2l-3.6-53-36.8 65-3.2-1.4 36.4-78.8-1.4-4-7.4 3.2-3.4-3-32.4 13.4-4.6-3.4-19.4 8zm162-71.2c0 9.4 7.8 23.8 12.4 23.8 1.2 0 2.4-1.2 2.4-4.8 0-8-7.6-23.2-12.4-23.2-1.4 0-2.4 1-2.4 4.2z"
     id="path18"
     style="fill:#cccccc" />
</svg>
